<?xml version="1.0" encoding="utf-8"?><svg xmlns="http://www.w3.org/2000/svg" xmlns:xlink="http://www.w3.org/1999/xlink"><symbol viewBox="0 0 512 512" id="icons--black-hole" xmlns="http://www.w3.org/2000/svg"><g fill="#898998"><path d="M375.816 158.547l-3.664 1.547a169.616 169.616 0 00-92.578 95.777h-47.402a169.628 169.628 0 00-92.578-95.777l-3.664-1.547zM327.695 366.79l-3.761-3.759a151.348 151.348 0 01-44.36-107.05h-47.402a151.348 151.348 0 01-44.36 107.05l-3.761 3.758zm0 0"/><path d="M415 121.059c0-31.582-71.188-57.188-159-57.188S97 89.477 97 121.06c0 31.586 71.188 57.187 159 57.187s159-25.601 159-57.187zM303.281 334.383C368.008 341.62 415 363.336 415 388.996c0 31.586-71.188 57.188-159 57.188S97 420.582 97 388.996c0-25.578 46.7-47.238 111.11-54.547"/></g><path d="M109.57 262.938a10.073 10.073 0 002.93-7.07c0-2.63-1.07-5.208-2.93-7.071-1.86-1.86-4.441-2.93-7.07-2.93s-5.21 1.07-7.07 2.93a10.087 10.087 0 00-2.93 7.07c0 2.633 1.07 5.211 2.93 7.07 1.86 1.872 4.441 2.93 7.07 2.93s5.21-1.058 7.07-2.93zM58.5 245.871H10c-5.523 0-10 4.48-10 10 0 5.524 4.477 10 10 10h48.5c5.523 0 10-4.476 10-10 0-5.52-4.477-10-10-10zm0 0"/><path d="M509.07 248.93l-25.53-25.535c-3.903-3.903-10.235-3.903-14.142 0-3.906 3.906-3.906 10.238 0 14.144l8.332 8.336H294.86c16.816-34.035 45.566-61.41 80.687-76.355C416.293 153.937 425 134.668 425 121.059c0-14.012-9.227-34.036-53.188-49.848-28.726-10.332-66.039-16.371-105.94-17.23V34.015l8.589 8.586c1.953 1.953 4.512 2.93 7.07 2.93s5.117-.977 7.07-2.93c3.907-3.907 3.907-10.239 0-14.145L263.072 2.93a9.996 9.996 0 00-14.141 0l-25.532 25.53c-3.906 3.903-3.906 10.235 0 14.142s10.235 3.906 14.141 0l8.332-8.332v19.718c-39.805.88-77.016 6.914-105.687 17.223C96.227 87.023 87 107.047 87 121.059c0 13.171 8.16 31.656 45.648 46.957l3.063 1.289c35.344 14.898 64.281 42.375 81.176 76.566H142.5c-5.523 0-10 4.477-10 10 0 5.524 4.477 10 10 10h79.324c-1.437 20.934-7.43 40.973-17.496 58.965-31.976 3.844-59.695 11.09-80.273 21.031C93.43 360.652 87 377.484 87 389c0 14.012 9.23 34.035 53.187 49.848 28.668 10.308 65.88 16.343 105.684 17.222v45.926c0 5.524 4.48 10 10 10 5.524 0 10-4.476 10-10v-45.922c39.902-.855 77.215-6.894 105.945-17.23 43.957-15.809 53.188-35.832 53.188-49.848 0-11.547-6.465-28.418-37.258-43.226-20.629-9.922-48.367-17.149-80.348-20.97-10.054-17.984-16.043-38.007-17.476-58.929h188.062l-8.586 8.586c-3.906 3.906-3.906 10.238 0 14.145 1.954 1.949 4.512 2.925 7.07 2.925s5.118-.976 7.071-2.925l25.531-25.532c3.907-3.906 3.907-10.238 0-14.14zM405 121.059c0 8.8-11.313 19.148-32.043 27.91a9.412 9.412 0 00-1.023.363l-3.153 1.328c-24 9.336-59.117 16.528-102.906 17.477V73.98C352.335 75.855 405 102.066 405 121.06zm-298 0c0-18.973 52.559-45.153 138.871-47.07v94.14C159.56 166.21 107 140.03 107 121.059zm87.973 62.937c16.132 2.348 33.297 3.75 50.972 4.137.586 4.969 4.801 8.824 9.926 8.824 5.121 0 9.34-3.852 9.926-8.816 17.656-.38 34.805-1.77 50.926-4.098-18.711 17.172-33.782 38.246-43.871 61.828h-12.465c3.25-1.648 5.484-5.016 5.484-8.914v-10c0-5.52-4.476-10-10-10-5.52 0-10 4.48-10 10v10c0 3.898 2.234 7.266 5.484 8.914h-12.46c-10.098-23.605-25.184-44.691-43.922-61.875zM405 389c0 18.988-52.664 45.203-139.129 47.074v-9.117c0-5.52-4.476-10-10-10-5.52 0-10 4.48-10 10v9.113C159.56 434.152 107 407.97 107 389c0-14.406 30.148-32.66 81.68-41.66-2.52 2.96-5.16 5.84-7.938 8.617l-3.762 3.762c-3.906 3.902-3.91 10.234-.003 14.14 1.953 1.954 4.511 2.934 7.07 2.934s5.117-.977 7.07-2.93l3.762-3.761c28.152-28.133 44.613-64.836 46.98-104.227h28.024c2.367 39.39 18.828 76.094 46.98 104.227l3.762 3.761a9.968 9.968 0 007.07 2.93c2.559 0 5.117-.98 7.07-2.934 3.907-3.906 3.903-10.238-.003-14.14L331 355.957a142.38 142.38 0 01-7.98-8.672C374.742 356.265 405 374.54 405 389zm0 0"/><path d="M255.871 266.957c-5.52 0-10 4.48-10 10v10c0 5.523 4.48 10 10 10 5.524 0 10-4.477 10-10v-10c0-5.523-4.476-10-10-10zm0 50c-5.52 0-10 4.48-10 10v10c0 5.523 4.48 10 10 10 5.524 0 10-4.477 10-10v-10c0-5.523-4.476-10-10-10zm0 50c-5.52 0-10 4.48-10 10v10c0 5.523 4.48 10 10 10 5.524 0 10-4.477 10-10v-10c0-5.523-4.476-10-10-10zm0 0"/></symbol><symbol viewBox="0 0 512 512" id="icons--fast-time" xmlns="http://www.w3.org/2000/svg"><path d="M38.872 149.21h79.098c4.142 0 7.5-3.357 7.5-7.5s-3.358-7.5-7.5-7.5H38.872c-4.142 0-7.5 3.357-7.5 7.5s3.357 7.5 7.5 7.5zm76.386 36.107H84.012c-4.142 0-7.5 3.357-7.5 7.5s3.358 7.5 7.5 7.5h31.246c4.142 0 7.5-3.357 7.5-7.5s-3.358-7.5-7.5-7.5zM7.5 237.327h76.512c4.142 0 7.5-3.357 7.5-7.5s-3.358-7.5-7.5-7.5H7.5c-4.142 0-7.5 3.357-7.5 7.5s3.358 7.5 7.5 7.5zm117.97 132.962a7.5 7.5 0 00-7.5-7.5H38.872c-4.142 0-7.5 3.357-7.5 7.5s3.358 7.5 7.5 7.5h79.098a7.5 7.5 0 007.5-7.5zm-10.212-58.606H84.012c-4.142 0-7.5 3.357-7.5 7.5s3.358 7.5 7.5 7.5h31.246c4.142 0 7.5-3.357 7.5-7.5s-3.358-7.5-7.5-7.5zm-23.746-29.51a7.5 7.5 0 00-7.5-7.5H7.5c-4.142 0-7.5 3.357-7.5 7.5s3.358 7.5 7.5 7.5h76.512a7.5 7.5 0 007.5-7.5zM319.529 165.83c4.143 0 7.5-3.357 7.5-7.5v-11.448c0-4.143-3.357-7.5-7.5-7.5s-7.5 3.357-7.5 7.5v11.448c0 4.143 3.357 7.5 7.5 7.5zm82.461 7.708a7.502 7.502 0 00-10.607 0l-8.095 8.095a7.5 7.5 0 0010.607 10.607l8.095-8.095a7.502 7.502 0 000-10.607zm15.209 74.962c-4.143 0-7.5 3.357-7.5 7.5s3.357 7.5 7.5 7.5h11.447c4.143 0 7.5-3.357 7.5-7.5s-3.357-7.5-7.5-7.5zm-23.304 71.259a7.5 7.5 0 00-10.607 10.607l8.095 8.095a7.501 7.501 0 0010.607-10.607zm-81.866 33.911v11.447c0 4.143 3.357 7.5 7.5 7.5s7.5-3.357 7.5-7.5V353.67c0-4.143-3.357-7.5-7.5-7.5s-7.5 3.358-7.5 7.5zm-66.867-33.911l-8.095 8.095a7.5 7.5 0 0010.606 10.607l8.095-8.095a7.5 7.5 0 00-10.606-10.607zM210.411 248.5c-4.142 0-7.5 3.357-7.5 7.5s3.358 7.5 7.5 7.5h11.448c4.142 0 7.5-3.357 7.5-7.5s-3.358-7.5-7.5-7.5zm45.358-66.867l-8.095-8.095a7.501 7.501 0 00-10.606 10.607l8.095 8.095a7.5 7.5 0 0010.606-10.607zM359.859 256c0-4.143-3.357-7.5-7.5-7.5h-25.33v-55.684c0-4.143-3.357-7.5-7.5-7.5s-7.5 3.357-7.5 7.5V256c0 4.143 3.357 7.5 7.5 7.5h32.83a7.5 7.5 0 007.5-7.5z"/><path d="M461.741 254.762a7.5 7.5 0 007.032-7.94c-4.771-78.703-70.327-140.354-149.245-140.354-82.452 0-149.532 67.08-149.532 149.533 0 82.452 67.08 149.532 149.532 149.532 73.869 0 136.9-54.122 147.865-127.157a7.5 7.5 0 10-14.834-2.226c-9.85 65.614-66.506 114.384-133.031 114.384-74.181 0-134.532-60.351-134.532-134.532s60.351-134.533 134.532-134.533c71.001 0 129.98 55.461 134.272 126.263.25 4.132 3.802 7.27 7.941 7.03z"/><path d="M319.528 63.529c-26.381 0-52.228 5.473-76.018 15.708H111.181c-4.142 0-7.5 3.357-7.5 7.5s3.358 7.5 7.5 7.5h104.113a192.265 192.265 0 00-38.462 32.604 7.5 7.5 0 0011.118 10.069c33.602-37.102 81.561-58.381 131.578-58.381C417.386 78.529 497 158.142 497 256c0 97.857-79.613 177.471-177.472 177.471-97.858 0-177.471-79.613-177.471-177.471 0-34.268 9.789-67.528 28.307-96.186a7.5 7.5 0 00-12.599-8.14c-20.09 31.088-30.708 67.163-30.708 104.326 0 67.766 35.206 127.458 88.285 161.763h-104.16c-4.142 0-7.5 3.357-7.5 7.5s3.358 7.5 7.5 7.5h132.225c23.36 10.099 49.097 15.708 76.122 15.708C425.657 448.471 512 362.129 512 256S425.657 63.529 319.528 63.529z"/></symbol><symbol viewBox="0 0 512.001 512.001" id="icons--hangar" xmlns="http://www.w3.org/2000/svg"><path d="M443.325 139.505V79c0-4.142-3.357-7.5-7.5-7.5s-7.5 3.358-7.5 7.5v56.19C409.122 56.299 338.144 0 256 0c-47.666 0-92.404 18.645-125.976 52.499a7.5 7.5 0 0010.652 10.561C171.409 32.068 212.365 15 256 15c64.587 0 121.635 38.012 147.588 94.491-15.487-13.194-32.999-23.95-52.37-32.096C322.556 65.342 290.52 59.23 256 59.23s-66.556 6.112-95.219 18.165c-19.353 8.138-36.851 18.882-52.327 32.06a162.36 162.36 0 0113.752-24.129 7.5 7.5 0 10-12.351-8.511c-12.533 18.187-21.397 38.139-26.424 59.403l-.007.023c-.025.107-.046.215-.071.321-.151.645-.296 1.292-.44 1.939H76.18c-15.781 0-28.62 12.835-28.62 28.61v55.11c0 15.775 12.839 28.61 28.62 28.61h18.326c9.172 20.172 21.8 38.04 37.014 53.026-7.422 8.082-11.31 17.011-11.31 26.174 0 18.196 14.938 34.773 42.062 46.677C187.433 387.749 220.72 393.83 256 393.83c16.287 0 32.189-1.29 47.268-3.835a7.501 7.501 0 00-2.497-14.791c-14.256 2.406-29.318 3.626-44.771 3.626-33.251 0-64.397-5.632-87.7-15.859-21.029-9.229-33.09-21.236-33.09-32.941 0-5.426 2.498-10.828 7.418-16.116 28.084 23.327 63.162 37.772 100.823 40.412.266.019.532.034.798.052.984.065 1.971.122 2.959.17.376.019.753.036 1.129.053.924.039 1.85.07 2.777.096.364.01.728.023 1.092.03 1.263.027 2.527.044 3.795.044 1.268 0 2.532-.017 3.795-.044.364-.008.728-.021 1.092-.03a170.503 170.503 0 006.866-.319c.265-.017.531-.033.796-.052 37.661-2.64 72.74-17.085 100.824-40.412 4.919 5.288 7.417 10.69 7.417 16.116 0 14.29-18.249 29.002-47.624 38.397a7.5 7.5 0 004.569 14.287c10.036-3.209 18.897-6.97 26.495-11.176a75.635 75.635 0 0130.001 60.382V497H121.77v-65.08c0-15.877 4.847-31.063 14.016-43.914a7.5 7.5 0 10-12.21-8.711c-10.994 15.409-16.805 33.607-16.805 52.626v72.58a7.5 7.5 0 007.5 7.5h283.461a7.5 7.5 0 007.5-7.5v-72.58a90.584 90.584 0 00-31.891-69.076c11.988-9.631 18.45-20.843 18.45-32.814 0-9.163-3.888-18.091-11.31-26.173 15.214-14.986 27.842-32.855 37.014-53.027h18.327c15.78 0 28.619-12.834 28.619-28.61v-55.11c-.001-13.181-8.965-24.301-21.116-27.606zM76.18 235.829c-7.51.001-13.62-6.104-13.62-13.609v-55.11c0-7.504 6.11-13.61 13.62-13.61h4.038c-.034.25-.056.502-.089.752-.19 1.455-.361 2.914-.515 4.376-.047.443-.095.886-.138 1.33-.052.537-.104 1.074-.152 1.612-.026.296-.047.593-.072.889-.077.922-.155 1.844-.218 2.769-.016.241-.026.482-.042.723-.008.122-.014.245-.021.367a174.16 174.16 0 00-.213 4.302c-.014.382-.033.764-.045 1.146a180.065 180.065 0 00-.093 5.614c0 1.387.019 2.771.051 4.153l.011.524c.002.077.006.153.009.23.005.192.015.383.021.574.028.945.061 1.889.104 2.831.023.512.052 1.023.079 1.535a178.851 178.851 0 00.51 6.909c.044.473.085.947.133 1.419.112 1.1.236 2.198.368 3.294.032.264.058.529.091.792.17 1.359.356 2.714.557 4.067.054.364.116.726.172 1.09.153.99.312 1.978.482 2.964.084.485.173.968.261 1.451a176.522 176.522 0 00.798 4.129c.178.866.365 1.731.556 2.594.107.482.212.964.323 1.444.222.96.454 1.917.692 2.873.092.372.18.744.274 1.116.338 1.32.689 2.637 1.057 3.95.067.24.141.479.209.719.306 1.073.62 2.143.947 3.211.138.451.283.9.424 1.35a159.75 159.75 0 001.328 4.052c.134.392.261.787.398 1.178H76.18zm342.143-54.163c-.001.062-.005.124-.007.186-1.227 44.376-20.684 86.566-53.811 116.343-26.959 24.242-61.046 38.634-97.015 41.17-.245.017-.491.032-.736.048a161.434 161.434 0 01-6.275.29c-.336.009-.671.021-1.007.028-1.156.025-2.313.04-3.472.04s-2.316-.015-3.472-.04c-.336-.007-.672-.019-1.007-.028a164.764 164.764 0 01-3.572-.135c-.901-.044-1.802-.096-2.701-.155-.246-.016-.493-.031-.739-.048-35.968-2.536-70.056-16.928-97.015-41.171-33.126-29.775-52.581-71.963-53.809-116.338l-.007-.19a160.813 160.813 0 01-.057-4.284c0-1.409.022-2.818.059-4.225.011-.41.029-.819.042-1.229.034-1.02.074-2.04.127-3.06.023-.438.05-.876.076-1.314.062-1.035.133-2.07.215-3.103.03-.375.059-.749.091-1.124.104-1.211.222-2.421.353-3.63.02-.186.037-.373.058-.559.324-2.887.725-5.765 1.201-8.628.051-.306.108-.61.161-.915.175-1.016.36-2.03.554-3.041.114-.594.235-1.186.355-1.778.184-.907.373-1.813.573-2.716.048-.217.099-.434.148-.651 18.654-21.905 41.847-38.784 68.962-50.187C193.408 79.947 223.488 74.23 256 74.23c32.512 0 62.592 5.717 89.403 16.992 27.122 11.406 50.319 28.289 68.978 50.201a163.049 163.049 0 012.99 17.813l.017.159c.147 1.326.273 2.654.387 3.984.029.338.055.676.082 1.015a168.595 168.595 0 01.295 4.468c.053 1.022.093 2.044.127 3.067.014.41.032.819.042 1.229.036 1.407.059 2.815.059 4.223 0 1.43-.019 2.859-.057 4.285zm17.498 54.164h-12.297c.141-.403.271-.808.409-1.212a166.667 166.667 0 001.331-4.062c.135-.429.273-.857.405-1.288.337-1.1.661-2.203.975-3.308.06-.209.124-.417.182-.626.371-1.322.725-2.647 1.065-3.976.089-.346.17-.695.256-1.042.244-.979.482-1.959.709-2.942.109-.472.212-.946.317-1.419a176.099 176.099 0 00.864-4.119c.172-.875.336-1.751.495-2.629.087-.479.176-.958.258-1.438.17-.985.328-1.973.481-2.962.057-.366.119-.732.173-1.098.201-1.351.387-2.705.556-4.063.033-.268.06-.537.093-.806.131-1.092.255-2.185.366-3.281.048-.475.09-.951.134-1.428a173.124 173.124 0 00.509-6.895c.028-.516.056-1.031.08-1.548.043-.942.076-1.885.104-2.829.006-.186.016-.372.021-.558l.009-.246.012-.52c.031-1.383.051-2.768.051-4.156 0-1.588-.027-3.177-.069-4.764-.007-.283-.016-.565-.024-.848-.012-.377-.03-.754-.044-1.131a189.882 189.882 0 00-.212-4.295l-.024-.417c-.014-.226-.024-.452-.039-.677a187.44 187.44 0 00-.228-2.906c-.02-.239-.037-.479-.058-.718-.049-.557-.102-1.113-.156-1.669-.042-.434-.089-.866-.135-1.299a176.79 176.79 0 00-.52-4.433c-.031-.24-.052-.483-.085-.723h4.034c7.51 0 13.619 6.105 13.619 13.61v55.111h.002c0 7.504-6.109 13.61-13.619 13.61z"/><path d="M179.251 408.5c-15.348 0-27.834 12.486-27.834 27.833 0 15.347 12.486 27.833 27.834 27.833 15.347.001 27.833-12.485 27.833-27.833 0-15.348-12.486-27.833-27.833-27.833zm0 40.666c-7.077.001-12.834-5.756-12.834-12.833s5.757-12.833 12.834-12.833c7.076 0 12.833 5.757 12.833 12.833 0 7.076-5.757 12.833-12.833 12.833zm155.628-42.165h-42.758c-15.23 0-27.621 12.391-27.621 27.621v27.424c0 15.23 12.391 27.621 27.621 27.621h42.758c15.23 0 27.621-12.391 27.621-27.621v-27.424c0-15.23-12.391-27.621-27.621-27.621zm12.621 55.044c0 6.96-5.662 12.621-12.621 12.621h-42.758c-6.959.001-12.621-5.661-12.621-12.621v-27.424c0-6.96 5.662-12.621 12.621-12.621h42.758c6.959 0 12.621 5.662 12.621 12.621v27.424z"/><path d="M329.667 428.833h-34.334a7.5 7.5 0 000 15h34.334a7.5 7.5 0 007.5-7.5 7.5 7.5 0 00-7.5-7.5zm0 24h-34.334a7.5 7.5 0 00-7.5 7.5 7.5 7.5 0 007.5 7.5h34.334a7.5 7.5 0 007.5-7.5 7.5 7.5 0 00-7.5-7.5z"/></symbol><symbol viewBox="0 0 512 512" id="icons--map" xmlns="http://www.w3.org/2000/svg"><path d="M461.255 152.16A29.807 29.807 0 00466 136c0-16.542-13.458-30-30-30-1.794 0-3.549.167-5.258.471C386.917 55.278 323.504 26 256 26c-61.435 0-119.193 23.924-162.634 67.366C49.924 136.807 26 194.565 26 256c0 84.602 45.914 161.686 120.08 202.079C147.153 473.654 160.158 486 176 486c7.781 0 14.879-2.979 20.216-7.855C215.624 483.354 235.72 486 256 486c61.435 0 119.193-23.924 162.634-67.366C462.076 375.193 486 317.435 486 256c0-36.083-8.552-71.857-24.745-103.84zM446 136c0 5.514-4.486 10-10 10s-10-4.486-10-10 4.486-10 10-10 10 4.486 10 10zM176 466c-5.514 0-10-4.486-10-10s4.486-10 10-10 10 4.486 10 10-4.486 10-10 10zm80 0c-17.023 0-33.898-2.034-50.268-6.053.171-1.293.268-2.608.268-3.947 0-16.542-13.458-30-30-30-9.947 0-18.774 4.87-24.235 12.347C86.326 400.917 46 331.759 46 256c0-115.794 94.206-210 210-210 60.382 0 117.181 25.662 157.092 70.659C408.672 121.886 406 128.635 406 136c0 16.542 13.458 30 30 30 3.167 0 6.219-.497 9.087-1.411C458.778 192.908 466 224.318 466 256c0 115.794-94.206 210-210 210z"/><path d="M256 86c-45.039 0-87.481 17.436-119.509 49.097-30.518 30.168-48.223 69.933-50.278 112.551C74.464 251.715 66 262.884 66 276c0 15.682 12.097 28.584 27.448 29.884C115.196 376.879 181.256 426 256 426c93.738 0 170-76.262 170-170S349.738 86 256 86zM86 276c0-5.514 4.486-10 10-10s10 4.486 10 10-4.486 10-10 10-10-4.486-10-10zm170 130c-65.671 0-123.746-42.966-143.184-105.169C120.766 295.43 126 286.315 126 276c0-12.952-8.251-24.011-19.771-28.202 2.001-37.288 17.593-72.054 44.323-98.477C178.811 121.385 216.26 106 256 106c82.71 0 150 67.29 150 150s-67.29 150-150 150zM80 66c0-22.056-17.944-40-40-40S0 43.944 0 66s17.944 40 40 40 40-17.944 40-40zm-60 0c0-11.028 8.972-20 20-20s20 8.972 20 20-8.972 20-20 20-20-8.972-20-20zm452 340c-22.056 0-40 17.944-40 40s17.944 40 40 40 40-17.944 40-40-17.944-40-40-40zm0 60c-11.028 0-20-8.972-20-20s8.972-20 20-20 20 8.972 20 20-8.972 20-20 20z"/><circle cx="276" cy="216" r="20"/><circle cx="246" cy="186" r="10"/><path d="M366 256c0-60.654-49.346-110-110-110-53.043 0-97.436 37.738-107.743 87.774a9.05 9.05 0 00-.098.501A110.09 110.09 0 00146 256c0 60.654 49.346 110 110 110 35.591 0 67.283-16.996 87.401-43.292.407-.449.774-.934 1.095-1.452 9.295-12.572 15.982-27.182 19.247-43.03.038-.165.069-.332.098-.5A110.115 110.115 0 00366 256zm-148.798 81.199C222.631 331.77 226 324.283 226 316c0-16.569-13.432-30-30-30-8.283 0-15.77 3.369-21.199 8.797C169.162 283.043 166 269.884 166 256c0-3.38.194-6.715.559-10H226c5.523 0 10-4.477 10-10s-4.477-10-10-10h-54.852c12.383-34.92 45.741-60 84.852-60 49.626 0 90 40.374 90 90 0 3.38-.194 6.716-.559 10H286c-5.523 0-10 4.477-10 10s4.477 10 10 10h54.852a89.758 89.758 0 01-10.056 20H266c-5.523 0-10 4.477-10 10s4.477 10 10 10h46.499c-15.457 12.5-35.117 20-56.499 20-13.884 0-27.043-3.162-38.798-8.801z"/></symbol><symbol viewBox="0 0 512 512" id="icons--news" xmlns="http://www.w3.org/2000/svg"><path d="M193.979 264.7l-29.116 30.01a6 6 0 108.612 8.356l29.116-30.009a6 6 0 10-8.612-8.357zm-40.757 41.967l-9.675 10.082a6 6 0 008.659 8.308l9.674-10.081a6 6 0 00-8.658-8.309zM398.5 5.574a6 6 0 001.292 11.93 85.816 85.816 0 0194.7 94.7 6 6 0 0011.931 1.292A97.815 97.815 0 00398.5 5.574z"/><path d="M398.261 30.856a6 6 0 001.769 11.87 60.821 60.821 0 0169.244 69.244 6 6 0 005.051 6.819 6.133 6.133 0 00.891.066 6 6 0 005.928-5.116 72.824 72.824 0 00-82.883-82.883z"/><path d="M397.722 56.475a6 6 0 002.847 11.657 35.8 35.8 0 0143.3 43.3 6 6 0 1011.657 2.847 47.8 47.8 0 00-57.8-57.8zm24.957 387.007L301.6 321.369a6 6 0 00-8.521 0l-3.982 4.015-7.411-7.429 40.089-40.6a6.026 6.026 0 00-.008-8.462l-20.578-20.765 11.658-11.663a85.517 85.517 0 0098.289-11.92 6 6 0 00.23-8.67l-52.645-53.1 23.043-23.043a16.008 16.008 0 10-8.492-8.479l-23 23-52.06-52.507a6 6 0 00-8.739.232 87.3 87.3 0 00-14.084 94.383l-12.811 12.812L243.19 189.7a5.93 5.93 0 00-4.261-1.7h-.006a5.916 5.916 0 00-4.262 1.705l-40.256 40.745-9.6-9.621 4.367-4.4a6 6 0 000-8.449L68.1 85.862a6 6 0 00-8.521 0l-52.84 53.293a6 6 0 000 8.449l121.075 122.114a6 6 0 008.521 0l5.053-5.1 9.674 9.7-46.52 47.082a5.977 5.977 0 00.007 8.422l5.343 5.378-38.218 38.345a6.064 6.064 0 00-.011 8.512l59.5 60.059a6.1 6.1 0 004.25 1.884h.008a6.1 6.1 0 004.249-1.873l38.168-38.4 5.292 5.416a6.077 6.077 0 004.261 1.857h.006a6.074 6.074 0 004.263-1.865l46.7-47.3 7.321 7.339-5.439 5.485a6 6 0 000 8.449l121.075 122.117a6 6 0 008.521 0l52.841-53.294a6 6 0 000-8.449zM388 121a4 4 0 11-4 4 4 4 0 014-4zm-93.622-6.076l103.869 104.759a73.6 73.6 0 01-97.06-6.8 75.289 75.289 0 01-6.809-97.959zm-12.971 92.4a86.761 86.761 0 0021.08 22.532l-9.743 9.744-21.713-21.9zm-42.469-4.949l70.131 70.733-22.078 22.353-70.132-70.733zM19.449 143.38L63.84 98.608l10.87 10.963-44.391 44.772zm112.626 113.592l-93.306-94.107 44.39-44.772 93.307 94.107-9.441 9.522-35.309-35.612a6 6 0 00-8.521 0l-17.06 17.207a6 6 0 000 8.449l35.381 35.684zm26.5-26.728l-8.611 8.684-31.12-31.386 8.611-8.685zm-8.738 25.856l26.522-26.749 9.612 9.636-26.475 26.8zm-14.4 173.172l-51.053-51.485 11.293-11.332 51.049 51.487zm19.765-19.83l-51.049-51.487 14.193-14.239 51.043 51.484zm32.186-13.135l-70.132-70.733 91.175-92.31L278.558 304zm85.876-69.813l7.393 7.412-22.483 22.676-4.038 4.072-7.338-7.356zm37.134 56.87l-8.611 8.684-30.939-31.2 8.61-8.684zm-57.441-4.477l9.441-9.522 35.128 35.43a6 6 0 008.522 0l17.06-17.207a6 6 0 000-8.449l-35.2-35.5 9.441-9.522 93.306 94.107-44.39 44.771zm112.621 113.591l-10.87-10.963 44.392-44.771 10.87 10.963z"/></symbol><symbol viewBox="0 0 478.856 478.856" id="icons--shop" xmlns="http://www.w3.org/2000/svg"><path d="M406.872 160.017H6.856A6.848 6.848 0 000 166.857v192.016a6.848 6.848 0 006.84 6.856h272.016a6.857 6.857 0 000-13.712H13.712V173.729H400v17.144a6.848 6.848 0 006.84 6.856h.016a6.848 6.848 0 006.856-6.84v-24.016a6.849 6.849 0 00-6.84-6.856zm-46.512-31.832l-320-72a6.885 6.885 0 00-5.176.896 6.897 6.897 0 00-3.024 4.304l-16 72a6.86 6.86 0 0013.392 2.976l14.504-65.288 313.296 70.488a6.857 6.857 0 003.008-13.376zm-38.856-39.672l-192-80a6.88 6.88 0 00-8.8 3.272l-16 32a6.88 6.88 0 1012.304 6.143v.016l13.128-26.272L316.208 101.2a6.874 6.874 0 005.296-12.687z"/><path d="M326.352 192.017h-63.496a6.857 6.857 0 000 13.712h63.496a6.857 6.857 0 000-13.712zm-127.496.456c-38.881 0-70.4 31.519-70.4 70.4.04 38.864 31.536 70.36 70.4 70.4 38.881 0 70.4-31.519 70.4-70.4s-31.519-70.4-70.4-70.4zm0 128c-31.812 0-57.6-25.788-57.6-57.6.035-31.797 25.803-57.565 57.6-57.6 31.812 0 57.6 25.788 57.6 57.6s-25.788 57.6-57.6 57.6zm192-105.6c-42.4 0-88 10.016-88 32v192c0 21.984 45.6 32 88 32s88-10.016 88-32v-192c0-21.984-45.6-32-88-32zm72 223.88c-1.208 4.44-25.2 16.12-72 16.12s-70.792-11.68-72-16v-12.576c17.024 8.576 45.144 12.576 72 12.576s54.984-4.04 72-12.584v12.464zm0-32c-1.208 4.44-25.2 16.12-72 16.12s-70.792-11.68-72-16v-12.576c17.024 8.576 45.144 12.576 72 12.576s54.984-4.04 72-12.584v12.464zm0-32c-1.208 4.44-25.2 16.12-72 16.12s-70.792-11.68-72-16v-12.576c17.024 8.576 45.144 12.576 72 12.576s54.984-4.04 72-12.584v12.464zm0-32c-1.208 4.44-25.2 16.12-72 16.12s-70.792-11.68-72-16v-12.576c17.024 8.576 45.144 12.576 72 12.576s54.984-4.04 72-12.584v12.464zm0-32c-1.208 4.44-25.2 16.12-72 16.12s-70.792-11.68-72-16v-12.576c17.024 8.536 45.144 12.576 72 12.576s54.984-4.04 72-12.584v12.464zm0-32c-1.208 4.44-25.2 16.12-72 16.12s-70.792-11.68-72-16v-12.576c17.024 8.536 45.144 12.576 72 12.576s54.984-4.04 72-12.584v12.464zm-72-15.88c-46.728 0-70.712-11.648-72-15.856v-.048c1.288-4.456 25.272-16.096 72-16.096 46.4 0 70.4 11.472 72 16-1.6 4.528-25.6 16-72 16z"/><path d="M134.856 320.009H74.384l-28.672-31.36v-52l31.664-30.92h57.48a6.857 6.857 0 000-13.712H74.592a6.863 6.863 0 00-4.8 1.944l-35.736 34.856a8.594 8.594 0 00-2.064 5.6v56.896a6.86 6.86 0 001.792 4.624l32.504 35.552a6.855 6.855 0 005.064 2.232h63.504a6.857 6.857 0 000-13.712zm68-65.136h-8c-2.488 0-4-1.392-4-2 0-.608 1.512-2 4-2h20a8 8 0 000-16h-8a8 8 0 00-16 0v.36a18.624 18.624 0 00-16 17.6c.573 10.489 9.507 18.548 20 18.04h8c2.488 0 4 1.392 4 2 0 .608-1.512 2-4 2h-20a8 8 0 000 16h8a8 8 0 0016 0v-.36a18.624 18.624 0 0016-17.6c-.573-10.489-9.507-18.548-20-18.04z"/></symbol><symbol viewBox="0 0 512 512" id="icons--telescope" xmlns="http://www.w3.org/2000/svg"><path d="M341.218 38.732c-91.413 0-165.783 74.37-165.783 165.783a166.805 166.805 0 003.53 34.152l-11.52 4.066a6 6 0 00-3.661 7.655l.915 2.592-80.885 28.546a6 6 0 00-3.661 7.655l1.629 4.616-47.275 16.684-.332-.942a6 6 0 00-7.655-3.661L9 312.06a6 6 0 00-3.661 7.654l16.637 47.144a6 6 0 007.656 3.662l17.516-6.182a6 6 0 003.661-7.654l-.332-.943 47.276-16.684 1.629 4.615a5.993 5.993 0 007.655 3.661l47.792-16.866a41.832 41.832 0 0017.386 22.74L111.579 464.4a6 6 0 1010.535 5.745l61.07-111.979a41.442 41.442 0 0022.871 0l61.068 111.979a6 6 0 1010.535-5.745l-60.637-111.19a41.865 41.865 0 0017.168-22.089A164.857 164.857 0 00341.218 370.3C432.631 370.3 507 295.927 507 204.515S432.631 38.732 341.218 38.732zM31.3 357.207l-12.646-35.828 6.2-2.189L37.5 355.019zm15.187-12.782L38.5 321.8l47.275-16.684 7.986 22.627zM152.969 318.4L108.7 334.021l-15.233-43.176 75.226-26.545 6.072 17.2a41.69 41.69 0 00-21.8 36.613c-.003.096.004.187.004.287zm41.65 29.372a29.486 29.486 0 01-11.823-2.466c-.046-.02-.091-.043-.138-.063a29.637 29.637 0 1111.961 2.529zm37.394-47.991a41.639 41.639 0 00-45.986-22.427l-8.929-25.3 135.602-47.86 21.061 59.676zm138.569-35.56l-21.313 7.522-29.437-83.407 21.314-7.523zm-12.152-70.495a46.738 46.738 0 0117.735 50.255zM341.218 358.3a152.982 152.982 0 01-104.969-41.408 42.011 42.011 0 00-.557-5.682l102.067-36.021 2.19 6.208a6 6 0 007.655 3.661l32.63-11.516a6 6 0 003.662-7.655l-1.81-5.126a58.7 58.7 0 00-29.572-83.8l-2.048-5.8a6 6 0 00-7.655-3.661l-32.63 11.516a6 6 0 00-3.661 7.654l2.19 6.208-118.31 41.754a154.891 154.891 0 01-2.965-30.117c0-84.8 68.987-153.783 153.783-153.783S495 119.719 495 204.515 426.014 358.3 341.218 358.3z"/><path d="M376.8 73.564a6 6 0 00-6.5-2.635 22.993 22.993 0 01-19.927-4.556 6 6 0 00-9.633 6.073 22.887 22.887 0 01-4.488 19.9 6 6 0 006.06 9.634 22.994 22.994 0 0119.927 4.556 6 6 0 009.632-6.074 22.887 22.887 0 014.488-19.9 6 6 0 00.441-6.998zM359.415 91.37a35.206 35.206 0 00-8.025-1.829 35.141 35.141 0 001.811-8 35.247 35.247 0 008.025 1.829 35.088 35.088 0 00-1.811 8zm73.779 151.972a6 6 0 00-1.1 6.934 22.893 22.893 0 01.084 20.4 6 6 0 008.064 8.031 22.991 22.991 0 0120.441-.024 6 6 0 008.026-8.078 22.889 22.889 0 01-.084-20.4 6 6 0 00-8.064-8.031 22.987 22.987 0 01-20.442.024 6 6 0 00-6.925 1.144zm21.31 12.986a35.084 35.084 0 00.028 8.206 35.179 35.179 0 00-8.23.015 35.138 35.138 0 00-.03-8.206 35.415 35.415 0 008.228-.015zm-228.686-93.321a10.439 10.439 0 1010.439 10.439 10.45 10.45 0 00-10.439-10.439zm0 12a1.562 1.562 0 111.563-1.561 1.562 1.562 0 01-1.563 1.561zm250.327 46.16a11.326 11.326 0 10-11.327-11.326 11.339 11.339 0 0011.327 11.326zm0-12a.674.674 0 11-.674.674.674.674 0 01.674-.674zM398.7 148.591a11.326 11.326 0 10-11.326 11.342 11.347 11.347 0 0011.326-11.342zm-11.326.658a.658.658 0 11.674-.658.667.667 0 01-.671.658z"/><circle cx="323.464" cy="318.138" r="7.775"/><path d="M221.381 190.082a6.444 6.444 0 106.443 6.443 6.45 6.45 0 00-6.443-6.443zm191.738-34.604a6.888 6.888 0 10-6.888-6.887 6.9 6.9 0 006.888 6.887zm-97.085-44.721a6 6 0 10-6.935-9.792l-29.618 20.978a6 6 0 106.936 9.792zm7.375-6.572a5.968 5.968 0 003.475-1.113l.237-.169a6 6 0 10-6.959-9.775l-.237.169a6 6 0 003.484 10.888zm-34.874 30.551l-.03.021a6.058 6.058 0 10.03-.021zm40.698-28.827l-29.885 21.169a6 6 0 106.935 9.792l29.886-21.17a6 6 0 10-6.936-9.792zm69.222 184.817a6 6 0 00-8.364-1.428l-15.628 11.07a6 6 0 106.935 9.792l15.628-11.07a6 6 0 001.429-8.364zm6.277 1.557a5.967 5.967 0 003.463-1.1l2.822-2a6 6 0 00-6.936-9.793l-2.821 2a6 6 0 003.472 10.9zm-5.963 10.074l-4.44 3.145a6 6 0 106.936 9.792l4.439-3.145a6 6 0 10-6.935-9.792zm25.446-18.024l-11.067 7.838a6 6 0 106.938 9.792l11.064-7.838a6 6 0 10-6.935-9.792zm-126.773-65.795l-21.111 7.45a6 6 0 103.994 11.317l21.112-7.451a6 6 0 10-4-11.316zm-37.427 13.209l-47.944 16.92a6 6 0 103.994 11.316l47.944-16.92a6 6 0 10-3.994-11.316zm-65.396 65.331a21.036 21.036 0 1021.035 21.036 21.06 21.06 0 00-21.035-21.036zm0 30.071a9.036 9.036 0 119.035-9.035 9.046 9.046 0 01-9.035 9.035z"/></symbol><symbol viewBox="0 0 512 512" id="icons--ufo" xmlns="http://www.w3.org/2000/svg"><path d="M169.224 164.254a14.748 14.748 0 00-16.845 12.305 6 6 0 1011.857 1.849 2.746 2.746 0 115.425.852 6 6 0 1011.858 1.848 14.774 14.774 0 00-12.295-16.854zm39.992 5.223a14.748 14.748 0 00-16.845 12.305 6 6 0 0011.858 1.848 2.745 2.745 0 115.424.852 6 6 0 1011.858 1.849 14.772 14.772 0 00-12.295-16.854zm19.469-139.605a136.464 136.464 0 00-37.579 29.734 6 6 0 008.977 7.965 124.5 124.5 0 0134.283-27.129 6 6 0 10-5.681-10.57zM184.241 78.13a6 6 0 00-8.229 2.069c-2.153 3.6-4.16 7.34-5.97 11.119a6 6 0 1010.824 5.182 124.865 124.865 0 015.445-10.14 6 6 0 00-2.07-8.23zm204.876-33.438a25.741 25.741 0 0116.2 16.2 6 6 0 0011.385 0 25.744 25.744 0 0116.2-16.2 6 6 0 000-11.384 25.744 25.744 0 01-16.2-16.2 6 6 0 00-11.385 0 25.741 25.741 0 01-16.2 16.2 6 6 0 000 11.384zm21.894-13.015A37.988 37.988 0 00418.333 39a37.988 37.988 0 00-7.322 7.323A37.993 37.993 0 00403.688 39a37.993 37.993 0 007.323-7.323zM72.983 248.838a17.758 17.758 0 01-14.374-6.661 6 6 0 00-10.688 3.923 17.808 17.808 0 01-6.663 14.379 6 6 0 003.921 10.688 17.791 17.791 0 0114.373 6.661A6 6 0 0070.24 273.9a17.8 17.8 0 016.66-14.373 6 6 0 00-3.919-10.689zM60.15 262.92a30.111 30.111 0 00-3.989-1.849 30.2 30.2 0 001.85-3.991A30.111 30.111 0 0062 258.929a30.142 30.142 0 00-1.85 3.991z"/><circle cx="443.005" cy="64" r="10"/><circle cx="95.073" cy="270" r="10"/><circle cx="462.001" cy="77" r="7"/><circle cx="111.07" cy="246" r="7"/><path d="M230.653 234.979a6 6 0 00-7.024 4.76l-16.5 85.906a6 6 0 1011.785 2.264l16.5-85.909a6 6 0 00-4.761-7.021zm-21.114 109.904a6 6 0 00-7.024 4.761l-2.365 12.309a6 6 0 1011.786 2.264l2.364-12.31a6 6 0 00-4.761-7.024zm115.911 32.799l3.7 18.878a6 6 0 0011.776-2.311l-3.7-18.878a6 6 0 00-11.776 2.311zm-16.171-113.57a6 6 0 00-4.732 7.043l14.884 75.852a6 6 0 0011.775-2.311l-14.884-75.851a6 6 0 00-7.043-4.733z"/><path d="M391.817 86.414a136.326 136.326 0 00-249.556 0c-52.374 12.865-81.182 32.4-81.182 55.147 0 19.866 21.706 37.169 62.773 50.04 21.879 6.857 47.841 11.952 76.136 15.066l-48.736 253.685.065.013a19.5 19.5 0 00-.255 3.1c0 28.279 60.011 43.537 116.477 43.537s116.479-15.258 116.479-43.537a19.483 19.483 0 00-.607-4.806l.147-.029-49.444-251.964c28.286-3.114 54.24-8.209 76.114-15.064C451.294 178.731 473 161.428 473 141.562c0-22.75-28.808-42.282-81.183-55.148zM267.039 17c67.474 0 122.572 54.06 124.361 121.192-28.446 12.559-74.455 20-124.362 20-49.7 0-95.9-7.458-124.362-20C144.468 71.06 199.565 17 267.039 17zm104.979 446.463c0 13.169-39.747 31.537-104.479 31.537s-104.477-18.368-104.477-31.537 39.747-31.536 104.477-31.536 104.479 18.373 104.479 31.536zm-4.254-23.006c-21.664-13.449-61.764-20.53-100.225-20.53s-78.587 7.086-100.248 20.545l44.688-232.615c17.7 1.564 36.188 2.375 55.06 2.375s37.371-.811 55.08-2.377zm38.875-260.306c-37.2 11.66-86.781 18.081-139.6 18.081s-102.4-6.421-139.6-18.081c-34.039-10.668-54.36-25.094-54.36-38.589 0-11.9 17.065-28.6 63.967-41.405a136.2 136.2 0 00-6.416 41.405 5.992 5.992 0 003.048 5.219 5.946 5.946 0 001.873 1.365c29.759 13.805 78.913 22.047 131.488 22.047 53.794 0 103.588-8.545 133.2-22.858a6 6 0 003.2-6.912 136.178 136.178 0 00-6.4-40.266c46.9 12.8 63.968 29.5 63.968 41.405-.007 13.495-20.329 27.921-54.368 38.589z"/></symbol></svg>